<?xml version="1.0" encoding="UTF-8"?>
<!DOCTYPE svg PUBLIC "-//W3C//DTD SVG 1.1//EN" "http://www.w3.org/Graphics/SVG/1.1/DTD/svg11.dtd">
<!-- Creator: CorelDRAW 2020 (64-Bit) -->
<svg xmlns="http://www.w3.org/2000/svg" xml:space="preserve" width="709px" height="204px" version="1.1" style="shape-rendering:geometricPrecision; text-rendering:geometricPrecision; image-rendering:optimizeQuality; fill-rule:evenodd; clip-rule:evenodd"
viewBox="0 0 254.13 73.11"
 xmlns:xlink="http://www.w3.org/1999/xlink"
 xmlns:xodm="http://www.corel.com/coreldraw/odm/2003">
 <defs>
  <style type="text/css">
   <![CDATA[
    .fil1 {fill:#E31E24}
    .fil2 {fill:#727271;fill-rule:nonzero}
    .fil0 {fill:#2E4693;fill-rule:nonzero}
    .fil3 {fill:#2E4693;fill-rule:nonzero}
   ]]>
  </style>
 </defs>
 <g id="Layer_x0020_1">
  <metadata id="CorelCorpID_0Corel-Layer"/>
  <g id="_2314227966064">
   <path class="fil0" d="M101.17 30.85l4.84 -29.2c0.16,-1.05 1.15,-1.76 2.19,-1.59 0.72,0.11 1.28,0.62 1.51,1.25l7.87 22.17 8.19 -22.21c0.36,-0.99 1.46,-1.5 2.44,-1.14 0.68,0.25 1.12,0.83 1.23,1.48l4.25 24.18 0 0.06c0.15,0.62 0.59,0.99 1.11,1.16 0.36,0.11 0.76,0.14 1.17,0.11 0.42,-0.04 0.81,-0.14 1.14,-0.31 0.4,-0.2 0.69,-0.46 0.69,-0.71l-0.01 -16.48c0,-2.32 0.41,-4.11 1.06,-5.48 0.27,-0.54 0.58,-1.02 0.92,-1.46 0.36,-0.45 0.75,-0.83 1.16,-1.15 1.37,-1.07 3,-1.48 4.6,-1.53l0.12 0 7.31 0 0 3.83 -7.31 0.01c-0.87,0.02 -1.72,0.22 -2.38,0.73 -0.19,0.15 -0.36,0.31 -0.51,0.5 -0.15,0.2 -0.31,0.44 -0.46,0.74 -0.42,0.88 -0.68,2.13 -0.68,3.81l0.01 16.48c-0.01,1.9 -1.18,3.34 -2.82,4.15 -0.77,0.38 -1.63,0.61 -2.51,0.69 -0.89,0.09 -1.8,-0.01 -2.66,-0.28 -1.76,-0.55 -3.24,-1.85 -3.7,-4.06 -0.01,-0.05 -0.02,-0.1 -0.03,-0.15l-3 -17.16 -7.56 20.49c-0.2,0.53 -0.6,0.96 -1.16,1.15 -1,0.36 -2.09,-0.17 -2.45,-1.17l-7.16 -20.17 -3.02 18.26c-0.3,1.54 -2.73,3 -4.39,3z"/>
   <path class="fil1" d="M152.96 14.31c-0.06,2.43 -2.58,4.39 -5.67,4.39 -3.1,0 -5.61,-1.96 -5.66,-4.39l11.33 0z"/>
  </g>
  <g id="_2314227990784">
   <path class="fil2" d="M2.8 41.9c0.52,0 0.96,0.08 1.33,0.23 0.38,0.15 0.74,0.39 1.09,0.7l-0.43 0.47c-0.32,-0.27 -0.63,-0.47 -0.93,-0.59 -0.31,-0.12 -0.65,-0.18 -1.03,-0.18 -0.53,0 -0.95,0.13 -1.27,0.38 -0.31,0.26 -0.47,0.61 -0.47,1.04 0,0.29 0.05,0.54 0.17,0.73 0.12,0.19 0.32,0.36 0.6,0.51 0.28,0.16 0.67,0.31 1.19,0.46 0.55,0.18 1,0.36 1.35,0.56 0.34,0.19 0.61,0.45 0.79,0.76 0.19,0.31 0.29,0.7 0.29,1.17 0,0.48 -0.12,0.9 -0.35,1.27 -0.23,0.36 -0.55,0.65 -0.97,0.86 -0.42,0.2 -0.91,0.3 -1.47,0.3 -1.04,0 -1.94,-0.35 -2.68,-1.05l0.41 -0.47c0.35,0.3 0.69,0.52 1.05,0.67 0.35,0.15 0.75,0.23 1.21,0.23 0.6,0 1.1,-0.16 1.48,-0.48 0.38,-0.32 0.57,-0.75 0.57,-1.3 0,-0.34 -0.07,-0.63 -0.19,-0.85 -0.13,-0.22 -0.33,-0.41 -0.62,-0.57 -0.28,-0.16 -0.68,-0.32 -1.19,-0.48 -0.86,-0.26 -1.47,-0.57 -1.84,-0.91 -0.37,-0.34 -0.55,-0.81 -0.55,-1.4 0,-0.39 0.1,-0.74 0.31,-1.06 0.21,-0.31 0.5,-0.56 0.87,-0.73 0.37,-0.18 0.8,-0.27 1.28,-0.27zm8.92 2.12l-2.22 6.42 -0.88 0 -2.3 -6.42 0.79 0 1.95 5.79 1.9 -5.79 0.76 0zm6.03 2.97c0,0.18 -0.01,0.35 -0.02,0.52l-4.28 0c0.04,0.83 0.24,1.45 0.59,1.85 0.36,0.41 0.83,0.61 1.41,0.61 0.33,0 0.63,-0.05 0.88,-0.15 0.26,-0.1 0.54,-0.27 0.85,-0.49l0.33 0.46c-0.32,0.26 -0.65,0.45 -0.98,0.59 -0.34,0.13 -0.71,0.19 -1.12,0.19 -0.85,0 -1.52,-0.29 -2,-0.87 -0.48,-0.58 -0.72,-1.38 -0.72,-2.41 0,-0.68 0.1,-1.28 0.31,-1.79 0.21,-0.51 0.51,-0.91 0.89,-1.19 0.39,-0.28 0.84,-0.42 1.36,-0.42 0.82,0 1.44,0.27 1.86,0.83 0.43,0.55 0.64,1.31 0.64,2.27zm-0.7 -0.22c0,-0.72 -0.15,-1.28 -0.45,-1.69 -0.29,-0.4 -0.74,-0.6 -1.33,-0.6 -0.53,0 -0.96,0.2 -1.28,0.61 -0.33,0.41 -0.51,1.03 -0.54,1.86l3.6 0 0 -0.18zm7.23 3.67l-0.62 0 -0.03 -1.14c-0.51,0.85 -1.21,1.27 -2.1,1.27 -0.58,0 -1.03,-0.17 -1.34,-0.51 -0.32,-0.34 -0.48,-0.82 -0.48,-1.45l0 -4.59 0.71 0 0 4.52c0,0.5 0.11,0.86 0.32,1.09 0.21,0.24 0.52,0.35 0.95,0.35 0.74,0 1.37,-0.43 1.87,-1.31l0 -4.65 0.72 0 0 6.42zm4.79 -6.55c0.37,0 0.7,0.05 0.98,0.15 0.29,0.1 0.57,0.27 0.83,0.5l-0.35 0.46c-0.21,-0.17 -0.43,-0.29 -0.66,-0.38 -0.22,-0.08 -0.48,-0.12 -0.76,-0.12 -0.61,0 -1.09,0.24 -1.45,0.71 -0.36,0.47 -0.54,1.15 -0.54,2.05 0,0.89 0.18,1.56 0.53,2.01 0.36,0.45 0.84,0.68 1.44,0.68 0.29,0 0.55,-0.05 0.78,-0.14 0.24,-0.09 0.47,-0.22 0.71,-0.4l0.34 0.48c-0.54,0.45 -1.15,0.68 -1.84,0.68 -0.55,0 -1.02,-0.13 -1.43,-0.39 -0.41,-0.26 -0.73,-0.64 -0.95,-1.13 -0.23,-0.5 -0.34,-1.09 -0.34,-1.78 0,-0.68 0.11,-1.27 0.34,-1.78 0.22,-0.51 0.54,-0.91 0.95,-1.18 0.41,-0.28 0.88,-0.42 1.42,-0.42zm1.5 -2.88l0.31 0.36 -1.58 1.3 -0.44 0 -1.59 -1.3 0.32 -0.36 1.49 1.03 1.49 -1.03zm2.77 3.01l0 6.42 -0.71 0 0 -6.42 0.71 0zm-0.37 -2.82c0.16,0 0.29,0.05 0.39,0.15 0.1,0.1 0.15,0.22 0.15,0.37 0,0.15 -0.05,0.27 -0.15,0.37 -0.1,0.09 -0.23,0.14 -0.39,0.14 -0.16,0 -0.28,-0.05 -0.38,-0.14 -0.1,-0.1 -0.15,-0.22 -0.15,-0.37 0,-0.15 0.05,-0.27 0.15,-0.37 0.1,-0.1 0.22,-0.15 0.38,-0.15zm4.03 9.37c-0.35,0 -0.62,-0.1 -0.82,-0.3 -0.2,-0.21 -0.3,-0.51 -0.3,-0.91l0 -7.95 0.71 -0.08 0 8c0,0.42 0.17,0.63 0.51,0.63 0.17,0 0.32,-0.03 0.44,-0.09l0.2 0.53c-0.23,0.11 -0.47,0.17 -0.74,0.17zm3.13 -6.55l0 6.42 -0.71 0 0 -6.42 0.71 0zm-0.37 -2.82c0.17,0 0.3,0.05 0.4,0.15 0.09,0.1 0.14,0.22 0.14,0.37 0,0.15 -0.05,0.27 -0.14,0.37 -0.1,0.09 -0.23,0.14 -0.4,0.14 -0.15,0 -0.28,-0.05 -0.38,-0.14 -0.09,-0.1 -0.14,-0.22 -0.14,-0.37 0,-0.15 0.05,-0.27 0.14,-0.37 0.1,-0.1 0.23,-0.15 0.38,-0.15zm4.54 2.69c0.4,0 0.77,0.06 1.09,0.18 0.33,0.12 0.65,0.29 0.96,0.53l-0.33 0.47c-0.3,-0.21 -0.57,-0.36 -0.84,-0.45 -0.26,-0.1 -0.54,-0.14 -0.85,-0.14 -0.43,0 -0.77,0.1 -1.03,0.29 -0.27,0.2 -0.4,0.46 -0.4,0.79 0,0.31 0.12,0.55 0.34,0.72 0.22,0.17 0.63,0.34 1.22,0.49 0.73,0.19 1.25,0.43 1.58,0.71 0.32,0.29 0.48,0.7 0.48,1.23 0,0.57 -0.22,1.02 -0.66,1.36 -0.44,0.33 -1,0.5 -1.66,0.5 -0.49,0 -0.92,-0.07 -1.28,-0.21 -0.37,-0.15 -0.71,-0.35 -1.01,-0.61l0.39 -0.45c0.29,0.23 0.58,0.4 0.88,0.51 0.3,0.11 0.63,0.16 1.01,0.16 0.47,0 0.86,-0.11 1.15,-0.32 0.29,-0.22 0.43,-0.52 0.43,-0.91 0,-0.26 -0.05,-0.47 -0.14,-0.63 -0.1,-0.17 -0.27,-0.31 -0.51,-0.43 -0.23,-0.11 -0.58,-0.24 -1.04,-0.36 -0.68,-0.18 -1.17,-0.4 -1.47,-0.67 -0.29,-0.27 -0.44,-0.63 -0.44,-1.08 0,-0.32 0.09,-0.61 0.28,-0.87 0.19,-0.25 0.44,-0.45 0.77,-0.6 0.32,-0.14 0.68,-0.21 1.08,-0.21zm1.56 -2.88l0.32 0.36 -1.58 1.3 -0.45 0 -1.59 -1.3 0.32 -0.36 1.49 1.03 1.49 -1.03zm5.48 9.16c-0.41,0.27 -0.86,0.4 -1.35,0.4 -0.49,0 -0.87,-0.14 -1.15,-0.43 -0.28,-0.29 -0.42,-0.71 -0.42,-1.26l0 -4.28 -1.08 0 0 -0.58 1.08 0 0 -1.53 0.71 -0.09 0 1.62 1.66 0 -0.09 0.58 -1.57 0 0 4.24c0,0.38 0.08,0.66 0.24,0.84 0.15,0.19 0.39,0.28 0.71,0.28 0.32,0 0.65,-0.09 0.98,-0.28l0.28 0.49zm5.81 -3.18c0,0.18 -0.01,0.35 -0.02,0.52l-4.28 0c0.04,0.83 0.24,1.45 0.59,1.85 0.36,0.41 0.83,0.61 1.41,0.61 0.33,0 0.63,-0.05 0.89,-0.15 0.25,-0.1 0.53,-0.27 0.84,-0.49l0.33 0.46c-0.32,0.26 -0.65,0.45 -0.98,0.59 -0.34,0.13 -0.71,0.19 -1.12,0.19 -0.85,0 -1.52,-0.29 -2,-0.87 -0.48,-0.58 -0.72,-1.38 -0.72,-2.41 0,-0.68 0.1,-1.28 0.31,-1.79 0.21,-0.51 0.51,-0.91 0.9,-1.19 0.38,-0.28 0.84,-0.42 1.35,-0.42 0.82,0 1.44,0.27 1.86,0.83 0.43,0.55 0.64,1.31 0.64,2.27zm-0.7 -0.22c0,-0.72 -0.15,-1.28 -0.44,-1.69 -0.3,-0.4 -0.75,-0.6 -1.33,-0.6 -0.54,0 -0.97,0.2 -1.29,0.61 -0.33,0.41 -0.51,1.03 -0.54,1.86l3.6 0 0 -0.18zm7.12 2.54c0,0.5 -0.07,0.9 -0.19,1.22 -0.13,0.31 -0.33,0.57 -0.6,0.78 -0.27,0.2 -0.64,0.4 -1.13,0.59l-0.19 -0.54c0.37,-0.17 0.66,-0.34 0.85,-0.51 0.2,-0.18 0.34,-0.39 0.41,-0.63 0.07,-0.24 0.11,-0.56 0.11,-0.95l0 -7.23 0.74 0 0 7.27zm4.8 -5.42c0.85,0 1.52,0.29 2,0.88 0.47,0.58 0.71,1.4 0.71,2.44 0,1.04 -0.24,1.86 -0.73,2.46 -0.48,0.6 -1.15,0.9 -1.99,0.9 -0.85,0 -1.51,-0.29 -1.99,-0.89 -0.48,-0.59 -0.72,-1.41 -0.72,-2.44 0,-0.68 0.11,-1.27 0.33,-1.78 0.22,-0.51 0.54,-0.9 0.95,-1.17 0.4,-0.27 0.89,-0.4 1.44,-0.4zm0 0.6c-0.62,0 -1.1,0.23 -1.44,0.7 -0.35,0.46 -0.52,1.15 -0.52,2.05 0,0.89 0.17,1.57 0.51,2.03 0.34,0.47 0.82,0.7 1.44,0.7 0.62,0 1.11,-0.23 1.45,-0.7 0.35,-0.46 0.53,-1.15 0.53,-2.06 0,-0.89 -0.17,-1.57 -0.51,-2.03 -0.34,-0.46 -0.83,-0.69 -1.46,-0.69zm6.37 -0.6c0.4,0 0.76,0.06 1.09,0.18 0.33,0.12 0.64,0.29 0.96,0.53l-0.34 0.47c-0.29,-0.21 -0.57,-0.36 -0.83,-0.45 -0.26,-0.1 -0.55,-0.14 -0.86,-0.14 -0.42,0 -0.77,0.1 -1.03,0.29 -0.26,0.2 -0.39,0.46 -0.39,0.79 0,0.31 0.11,0.55 0.34,0.72 0.22,0.17 0.63,0.34 1.22,0.49 0.72,0.19 1.25,0.43 1.57,0.71 0.33,0.29 0.49,0.7 0.49,1.23 0,0.57 -0.22,1.02 -0.67,1.36 -0.44,0.33 -0.99,0.5 -1.65,0.5 -0.49,0 -0.92,-0.07 -1.29,-0.21 -0.37,-0.15 -0.7,-0.35 -1,-0.61l0.39 -0.45c0.28,0.23 0.58,0.4 0.88,0.51 0.29,0.11 0.63,0.16 1.01,0.16 0.47,0 0.85,-0.11 1.14,-0.32 0.29,-0.22 0.44,-0.52 0.44,-0.91 0,-0.26 -0.05,-0.47 -0.15,-0.63 -0.1,-0.17 -0.26,-0.31 -0.5,-0.43 -0.24,-0.11 -0.59,-0.24 -1.04,-0.36 -0.68,-0.18 -1.17,-0.4 -1.47,-0.67 -0.3,-0.27 -0.45,-0.63 -0.45,-1.08 0,-0.32 0.1,-0.61 0.29,-0.87 0.18,-0.25 0.44,-0.45 0.76,-0.6 0.32,-0.14 0.69,-0.21 1.09,-0.21zm4.83 0.13l0 6.42 -0.71 0 0 -6.42 0.71 0zm-0.37 -2.82c0.16,0 0.3,0.05 0.39,0.15 0.1,0.1 0.15,0.22 0.15,0.37 0,0.15 -0.05,0.27 -0.15,0.37 -0.09,0.09 -0.23,0.14 -0.39,0.14 -0.15,0 -0.28,-0.05 -0.38,-0.14 -0.1,-0.1 -0.15,-0.22 -0.15,-0.37 0,-0.15 0.05,-0.27 0.15,-0.37 0.1,-0.1 0.23,-0.15 0.38,-0.15zm5.62 2.69c0.77,0 1.36,0.29 1.75,0.86 0.38,0.58 0.58,1.4 0.58,2.45 0,1.03 -0.21,1.85 -0.63,2.46 -0.43,0.61 -1.03,0.91 -1.81,0.91 -0.39,0 -0.73,-0.08 -1.05,-0.24 -0.31,-0.16 -0.57,-0.37 -0.78,-0.64l0 3.16 -0.71 0.1 0 -8.93 0.61 0 0.06 0.94c0.24,-0.34 0.53,-0.6 0.87,-0.79 0.34,-0.19 0.71,-0.28 1.11,-0.28zm-0.25 6.08c0.59,0 1.04,-0.23 1.35,-0.7 0.31,-0.46 0.47,-1.15 0.47,-2.07 0,-1.82 -0.57,-2.72 -1.71,-2.72 -0.38,0 -0.71,0.1 -1,0.29 -0.28,0.2 -0.55,0.47 -0.8,0.81l0 3.41c0.42,0.65 0.99,0.98 1.69,0.98zm8.71 -0.96c0,0.34 0.04,0.58 0.13,0.73 0.08,0.15 0.22,0.26 0.41,0.33l-0.16 0.5c-0.3,-0.06 -0.52,-0.17 -0.68,-0.33 -0.16,-0.16 -0.27,-0.41 -0.31,-0.75 -0.45,0.72 -1.11,1.08 -2,1.08 -0.62,0 -1.1,-0.17 -1.46,-0.52 -0.35,-0.35 -0.53,-0.81 -0.53,-1.39 0,-0.66 0.24,-1.17 0.71,-1.53 0.47,-0.36 1.12,-0.54 1.95,-0.54l1.23 0 0 -0.63c0,-0.51 -0.12,-0.89 -0.35,-1.12 -0.22,-0.23 -0.6,-0.35 -1.14,-0.35 -0.49,0 -1.07,0.12 -1.74,0.37l-0.18 -0.54c0.72,-0.29 1.39,-0.43 2.02,-0.43 1.4,0 2.1,0.68 2.1,2.03l0 3.09zm-2.49 0.99c0.77,0 1.36,-0.38 1.78,-1.13l0 -1.77 -1.12 0c-0.65,0 -1.15,0.13 -1.49,0.38 -0.35,0.26 -0.52,0.64 -0.52,1.14 0,0.44 0.12,0.78 0.36,1.02 0.23,0.24 0.56,0.36 0.99,0.36zm9.47 -0.69c0,0.5 -0.07,0.9 -0.19,1.22 -0.13,0.31 -0.33,0.57 -0.6,0.78 -0.27,0.2 -0.64,0.4 -1.13,0.59l-0.19 -0.54c0.37,-0.17 0.66,-0.34 0.86,-0.51 0.19,-0.18 0.33,-0.39 0.4,-0.63 0.07,-0.24 0.11,-0.56 0.11,-0.95l0 -7.23 0.74 0 0 7.27zm7.1 1.13l-0.62 0 -0.03 -1.14c-0.51,0.85 -1.21,1.27 -2.1,1.27 -0.58,0 -1.03,-0.17 -1.34,-0.51 -0.32,-0.34 -0.48,-0.82 -0.48,-1.45l0 -4.59 0.72 0 0 4.52c0,0.5 0.1,0.86 0.31,1.09 0.21,0.24 0.52,0.35 0.95,0.35 0.74,0 1.37,-0.43 1.88,-1.31l0 -4.65 0.71 0 0 6.42zm5.09 -6.55c0.25,0 0.46,0.02 0.63,0.07l-0.13 0.68c-0.18,-0.05 -0.37,-0.08 -0.57,-0.08 -0.43,0 -0.78,0.16 -1.04,0.48 -0.27,0.31 -0.49,0.8 -0.67,1.47l0 3.93 -0.71 0 0 -6.42 0.61 0 0.06 1.44c0.17,-0.53 0.41,-0.93 0.71,-1.19 0.29,-0.25 0.66,-0.38 1.11,-0.38zm2.79 6.31c0,0.56 -0.06,1 -0.18,1.33 -0.12,0.34 -0.3,0.6 -0.54,0.8 -0.24,0.2 -0.57,0.4 -1.01,0.6l-0.21 -0.52c0.31,-0.15 0.55,-0.31 0.72,-0.46 0.17,-0.15 0.3,-0.36 0.38,-0.62 0.09,-0.27 0.13,-0.64 0.13,-1.1l0 -6.21 0.71 0 0 6.18zm-0.37 -9c0.17,0 0.3,0.05 0.4,0.15 0.09,0.1 0.14,0.22 0.14,0.37 0,0.15 -0.05,0.27 -0.14,0.37 -0.1,0.09 -0.23,0.14 -0.4,0.14 -0.15,0 -0.28,-0.05 -0.38,-0.14 -0.09,-0.1 -0.14,-0.22 -0.14,-0.37 0,-0.15 0.05,-0.27 0.14,-0.37 0.1,-0.1 0.23,-0.15 0.38,-0.15zm6.96 7.81c0,0.34 0.04,0.58 0.13,0.73 0.08,0.15 0.22,0.26 0.41,0.33l-0.16 0.5c-0.3,-0.06 -0.52,-0.17 -0.68,-0.33 -0.16,-0.16 -0.27,-0.41 -0.32,-0.75 -0.44,0.72 -1.1,1.08 -1.99,1.08 -0.62,0 -1.1,-0.17 -1.46,-0.52 -0.35,-0.35 -0.53,-0.81 -0.53,-1.39 0,-0.66 0.23,-1.17 0.7,-1.53 0.47,-0.36 1.13,-0.54 1.96,-0.54l1.23 0 0 -0.63c0,-0.51 -0.12,-0.89 -0.35,-1.12 -0.23,-0.23 -0.61,-0.35 -1.14,-0.35 -0.49,0 -1.07,0.12 -1.74,0.37l-0.18 -0.54c0.72,-0.29 1.39,-0.43 2.02,-0.43 1.4,0 2.1,0.68 2.1,2.03l0 3.09zm-2.49 0.99c0.77,0 1.36,-0.38 1.78,-1.13l0 -1.77 -1.12 0c-0.65,0 -1.15,0.13 -1.5,0.38 -0.34,0.26 -0.51,0.64 -0.51,1.14 0,0.44 0.12,0.78 0.35,1.02 0.24,0.24 0.57,0.36 1,0.36zm10.47 -8.1c0.52,0 0.96,0.08 1.33,0.23 0.37,0.15 0.73,0.39 1.09,0.7l-0.43 0.47c-0.32,-0.27 -0.63,-0.47 -0.94,-0.59 -0.3,-0.12 -0.64,-0.18 -1.03,-0.18 -0.52,0 -0.94,0.13 -1.26,0.38 -0.32,0.26 -0.48,0.61 -0.48,1.04 0,0.29 0.06,0.54 0.18,0.73 0.12,0.19 0.32,0.36 0.6,0.51 0.27,0.16 0.67,0.31 1.19,0.46 0.55,0.18 1,0.36 1.34,0.56 0.35,0.19 0.61,0.45 0.8,0.76 0.19,0.31 0.28,0.7 0.28,1.17 0,0.48 -0.11,0.9 -0.34,1.27 -0.23,0.36 -0.55,0.65 -0.97,0.86 -0.43,0.2 -0.91,0.3 -1.47,0.3 -1.05,0 -1.94,-0.35 -2.69,-1.05l0.42 -0.47c0.34,0.3 0.69,0.52 1.04,0.67 0.36,0.15 0.76,0.23 1.22,0.23 0.6,0 1.1,-0.16 1.48,-0.48 0.38,-0.32 0.57,-0.75 0.57,-1.3 0,-0.34 -0.07,-0.63 -0.19,-0.85 -0.13,-0.22 -0.34,-0.41 -0.62,-0.57 -0.28,-0.16 -0.68,-0.32 -1.19,-0.48 -0.86,-0.26 -1.47,-0.57 -1.84,-0.91 -0.37,-0.34 -0.55,-0.81 -0.55,-1.4 0,-0.39 0.1,-0.74 0.31,-1.06 0.21,-0.31 0.5,-0.56 0.87,-0.73 0.37,-0.18 0.8,-0.27 1.28,-0.27zm7.55 8.27c-0.4,0.27 -0.85,0.4 -1.34,0.4 -0.49,0 -0.88,-0.14 -1.16,-0.43 -0.28,-0.29 -0.41,-0.71 -0.41,-1.26l0 -4.28 -1.08 0 0 -0.58 1.08 0 0 -1.53 0.71 -0.09 0 1.62 1.65 0 -0.08 0.58 -1.57 0 0 4.24c0,0.38 0.07,0.66 0.23,0.84 0.16,0.19 0.39,0.28 0.71,0.28 0.33,0 0.66,-0.09 0.98,-0.28l0.28 0.49zm3.76 -6.28c0.25,0 0.46,0.02 0.63,0.07l-0.13 0.68c-0.18,-0.05 -0.37,-0.08 -0.56,-0.08 -0.44,0 -0.79,0.16 -1.05,0.48 -0.27,0.31 -0.49,0.8 -0.67,1.47l0 3.93 -0.71 0 0 -6.42 0.61 0 0.06 1.44c0.17,-0.53 0.41,-0.93 0.71,-1.19 0.3,-0.25 0.67,-0.38 1.11,-0.38zm4.29 0c0.85,0 1.51,0.29 1.99,0.88 0.48,0.58 0.72,1.4 0.72,2.44 0,1.04 -0.24,1.86 -0.73,2.46 -0.49,0.6 -1.15,0.9 -1.99,0.9 -0.85,0 -1.52,-0.29 -2,-0.89 -0.47,-0.59 -0.71,-1.41 -0.71,-2.44 0,-0.68 0.11,-1.27 0.33,-1.78 0.22,-0.51 0.53,-0.9 0.94,-1.17 0.41,-0.27 0.89,-0.4 1.45,-0.4zm0 0.6c-0.62,0 -1.1,0.23 -1.45,0.7 -0.34,0.46 -0.51,1.15 -0.51,2.05 0,0.89 0.17,1.57 0.51,2.03 0.33,0.47 0.82,0.7 1.44,0.7 0.62,0 1.1,-0.23 1.45,-0.7 0.35,-0.46 0.52,-1.15 0.52,-2.06 0,-0.89 -0.17,-1.57 -0.51,-2.03 -0.34,-0.46 -0.82,-0.69 -1.45,-0.69zm6.36 -0.6c0.4,0 0.77,0.06 1.09,0.18 0.33,0.12 0.65,0.29 0.96,0.53l-0.33 0.47c-0.29,-0.21 -0.57,-0.36 -0.83,-0.45 -0.27,-0.1 -0.55,-0.14 -0.86,-0.14 -0.43,0 -0.77,0.1 -1.03,0.29 -0.26,0.2 -0.39,0.46 -0.39,0.79 0,0.31 0.11,0.55 0.33,0.72 0.23,0.17 0.63,0.34 1.22,0.49 0.73,0.19 1.26,0.43 1.58,0.71 0.32,0.29 0.48,0.7 0.48,1.23 0,0.57 -0.22,1.02 -0.66,1.36 -0.44,0.33 -0.99,0.5 -1.65,0.5 -0.5,0 -0.92,-0.07 -1.29,-0.21 -0.37,-0.15 -0.71,-0.35 -1.01,-0.61l0.39 -0.45c0.29,0.23 0.58,0.4 0.88,0.51 0.3,0.11 0.64,0.16 1.01,0.16 0.48,0 0.86,-0.11 1.15,-0.32 0.29,-0.22 0.43,-0.52 0.43,-0.91 0,-0.26 -0.04,-0.47 -0.14,-0.63 -0.1,-0.17 -0.27,-0.31 -0.51,-0.43 -0.23,-0.11 -0.58,-0.24 -1.04,-0.36 -0.68,-0.18 -1.16,-0.4 -1.46,-0.67 -0.3,-0.27 -0.45,-0.63 -0.45,-1.08 0,-0.32 0.09,-0.61 0.28,-0.87 0.19,-0.25 0.45,-0.45 0.77,-0.6 0.32,-0.14 0.68,-0.21 1.08,-0.21zm5.69 0c0.4,0 0.77,0.06 1.09,0.18 0.33,0.12 0.65,0.29 0.96,0.53l-0.33 0.47c-0.29,-0.21 -0.57,-0.36 -0.83,-0.45 -0.27,-0.1 -0.55,-0.14 -0.86,-0.14 -0.43,0 -0.77,0.1 -1.03,0.29 -0.26,0.2 -0.39,0.46 -0.39,0.79 0,0.31 0.11,0.55 0.33,0.72 0.23,0.17 0.63,0.34 1.22,0.49 0.73,0.19 1.26,0.43 1.58,0.71 0.32,0.29 0.48,0.7 0.48,1.23 0,0.57 -0.22,1.02 -0.66,1.36 -0.44,0.33 -0.99,0.5 -1.65,0.5 -0.5,0 -0.92,-0.07 -1.29,-0.21 -0.37,-0.15 -0.71,-0.35 -1.01,-0.61l0.39 -0.45c0.29,0.23 0.58,0.4 0.88,0.51 0.3,0.11 0.64,0.16 1.01,0.16 0.48,0 0.86,-0.11 1.15,-0.32 0.29,-0.22 0.43,-0.52 0.43,-0.91 0,-0.26 -0.04,-0.47 -0.14,-0.63 -0.1,-0.17 -0.27,-0.31 -0.51,-0.43 -0.23,-0.11 -0.58,-0.24 -1.04,-0.36 -0.68,-0.18 -1.16,-0.4 -1.46,-0.67 -0.3,-0.27 -0.45,-0.63 -0.45,-1.08 0,-0.32 0.09,-0.61 0.28,-0.87 0.19,-0.25 0.45,-0.45 0.77,-0.6 0.32,-0.14 0.68,-0.21 1.08,-0.21zm10.38 0c0.51,0 0.92,0.17 1.22,0.53 0.3,0.35 0.45,0.83 0.45,1.43l0 4.59 -0.72 0 0 -4.49c0,-0.51 -0.09,-0.88 -0.28,-1.12 -0.2,-0.24 -0.46,-0.36 -0.81,-0.36 -0.36,0 -0.68,0.11 -0.97,0.34 -0.28,0.23 -0.56,0.55 -0.83,0.98l0 4.65 -0.71 0 0 -4.49c0,-0.51 -0.1,-0.88 -0.29,-1.12 -0.19,-0.24 -0.46,-0.36 -0.8,-0.36 -0.37,0 -0.7,0.11 -0.98,0.34 -0.29,0.23 -0.56,0.55 -0.83,0.98l0 4.65 -0.71 0 0 -6.42 0.62 0 0.06 1.1c0.24,-0.39 0.53,-0.69 0.87,-0.91 0.33,-0.21 0.7,-0.32 1.1,-0.32 0.41,0 0.75,0.11 1.03,0.34 0.28,0.22 0.47,0.53 0.57,0.93 0.25,-0.4 0.55,-0.71 0.89,-0.93 0.34,-0.23 0.71,-0.34 1.12,-0.34zm8.19 5.12c0,0.34 0.04,0.58 0.13,0.73 0.08,0.15 0.22,0.26 0.41,0.33l-0.16 0.5c-0.29,-0.06 -0.52,-0.17 -0.68,-0.33 -0.16,-0.16 -0.26,-0.41 -0.31,-0.75 -0.45,0.72 -1.11,1.08 -2,1.08 -0.62,0 -1.1,-0.17 -1.46,-0.52 -0.35,-0.35 -0.53,-0.81 -0.53,-1.39 0,-0.66 0.24,-1.17 0.71,-1.53 0.47,-0.36 1.12,-0.54 1.95,-0.54l1.23 0 0 -0.63c0,-0.51 -0.12,-0.89 -0.35,-1.12 -0.22,-0.23 -0.6,-0.35 -1.14,-0.35 -0.49,0 -1.07,0.12 -1.74,0.37l-0.18 -0.54c0.72,-0.29 1.39,-0.43 2.02,-0.43 1.4,0 2.1,0.68 2.1,2.03l0 3.09zm-2.49 0.99c0.77,0 1.36,-0.38 1.78,-1.13l0 -1.77 -1.12 0c-0.65,0 -1.15,0.13 -1.49,0.38 -0.35,0.26 -0.52,0.64 -0.52,1.14 0,0.44 0.12,0.78 0.36,1.02 0.23,0.24 0.56,0.36 0.99,0.36zm7.12 0.46c-0.17,0.5 -0.35,0.91 -0.56,1.23 -0.2,0.32 -0.47,0.58 -0.8,0.79 -0.32,0.21 -0.74,0.36 -1.26,0.46l-0.07 -0.55c0.42,-0.11 0.76,-0.24 1,-0.4 0.24,-0.15 0.43,-0.34 0.57,-0.58 0.15,-0.23 0.29,-0.56 0.44,-0.97l-0.25 0 -2.23 -6.42 0.77 0 1.94 5.89 1.9 -5.89 0.75 0 -2.2 6.44zm8.25 -3.47c0,0.18 -0.01,0.35 -0.03,0.52l-4.28 0c0.04,0.83 0.24,1.45 0.6,1.85 0.35,0.41 0.82,0.61 1.4,0.61 0.34,0 0.63,-0.05 0.89,-0.15 0.26,-0.1 0.54,-0.27 0.84,-0.49l0.33 0.46c-0.32,0.26 -0.65,0.45 -0.98,0.59 -0.34,0.13 -0.71,0.19 -1.12,0.19 -0.85,0 -1.51,-0.29 -2,-0.87 -0.48,-0.58 -0.72,-1.38 -0.72,-2.41 0,-0.68 0.11,-1.28 0.31,-1.79 0.21,-0.51 0.51,-0.91 0.9,-1.19 0.39,-0.28 0.84,-0.42 1.35,-0.42 0.82,0 1.44,0.27 1.87,0.83 0.42,0.55 0.64,1.31 0.64,2.27zm-0.7 -0.22c0,-0.72 -0.15,-1.28 -0.45,-1.69 -0.3,-0.4 -0.74,-0.6 -1.33,-0.6 -0.53,0 -0.96,0.2 -1.29,0.61 -0.33,0.41 -0.51,1.03 -0.54,1.86l3.61 0 0 -0.18zm5.21 -2.88c0.25,0 0.46,0.02 0.64,0.07l-0.14 0.68c-0.18,-0.05 -0.37,-0.08 -0.56,-0.08 -0.44,0 -0.79,0.16 -1.05,0.48 -0.27,0.31 -0.49,0.8 -0.67,1.47l0 3.93 -0.71 0 0 -6.42 0.61 0 0.06 1.44c0.18,-0.53 0.41,-0.93 0.71,-1.19 0.3,-0.25 0.67,-0.38 1.11,-0.38zm6.07 5.12c0,0.34 0.04,0.58 0.13,0.73 0.08,0.15 0.22,0.26 0.41,0.33l-0.16 0.5c-0.3,-0.06 -0.52,-0.17 -0.68,-0.33 -0.16,-0.16 -0.27,-0.41 -0.31,-0.75 -0.45,0.72 -1.11,1.08 -2,1.08 -0.62,0 -1.1,-0.17 -1.46,-0.52 -0.35,-0.35 -0.53,-0.81 -0.53,-1.39 0,-0.66 0.24,-1.17 0.71,-1.53 0.47,-0.36 1.12,-0.54 1.95,-0.54l1.23 0 0 -0.63c0,-0.51 -0.12,-0.89 -0.35,-1.12 -0.22,-0.23 -0.6,-0.35 -1.14,-0.35 -0.49,0 -1.07,0.12 -1.74,0.37l-0.18 -0.54c0.72,-0.29 1.39,-0.43 2.02,-0.43 1.4,0 2.1,0.68 2.1,2.03l0 3.09zm-2.49 0.99c0.77,0 1.36,-0.38 1.78,-1.13l0 -1.77 -1.12 0c-0.65,0 -1.15,0.13 -1.49,0.38 -0.35,0.26 -0.52,0.64 -0.52,1.14 0,0.44 0.12,0.78 0.36,1.02 0.23,0.24 0.56,0.36 0.99,0.36zm13 0.44l-0.61 0 -0.04 -1.14c-0.51,0.85 -1.21,1.27 -2.1,1.27 -0.58,0 -1.03,-0.17 -1.34,-0.51 -0.32,-0.34 -0.47,-0.82 -0.47,-1.45l0 -4.59 0.71 0 0 4.52c0,0.5 0.1,0.86 0.31,1.09 0.21,0.24 0.53,0.35 0.95,0.35 0.74,0 1.37,-0.43 1.88,-1.31l0 -4.65 0.71 0 0 6.42z"/>
   <path class="fil2" d="M218.95 41.9c0.69,0 1.29,0.17 1.8,0.5 0.52,0.33 0.92,0.82 1.21,1.48 0.28,0.65 0.42,1.44 0.42,2.36 0,0.91 -0.14,1.69 -0.42,2.34 -0.28,0.65 -0.68,1.14 -1.19,1.48 -0.52,0.34 -1.12,0.51 -1.82,0.51 -0.68,0 -1.27,-0.17 -1.79,-0.5 -0.52,-0.34 -0.92,-0.83 -1.2,-1.47 -0.29,-0.65 -0.43,-1.43 -0.43,-2.34 0,-0.91 0.14,-1.69 0.43,-2.35 0.28,-0.65 0.69,-1.15 1.21,-1.49 0.52,-0.35 1.11,-0.52 1.78,-0.52zm0 0.63c-0.82,0 -1.46,0.31 -1.94,0.94 -0.47,0.62 -0.71,1.55 -0.71,2.79 0,1.21 0.24,2.13 0.72,2.75 0.48,0.63 1.12,0.94 1.93,0.94 0.84,0 1.5,-0.31 1.96,-0.93 0.47,-0.62 0.7,-1.54 0.7,-2.78 0,-1.24 -0.23,-2.17 -0.7,-2.79 -0.47,-0.61 -1.13,-0.92 -1.96,-0.92zm7.11 1.36c0.4,0 0.77,0.06 1.09,0.18 0.33,0.12 0.65,0.29 0.96,0.53l-0.33 0.47c-0.29,-0.21 -0.57,-0.36 -0.83,-0.45 -0.27,-0.1 -0.55,-0.14 -0.86,-0.14 -0.43,0 -0.77,0.1 -1.03,0.29 -0.26,0.2 -0.4,0.46 -0.4,0.79 0,0.31 0.12,0.55 0.34,0.72 0.23,0.17 0.63,0.34 1.22,0.49 0.73,0.19 1.26,0.43 1.58,0.71 0.32,0.29 0.48,0.7 0.48,1.23 0,0.57 -0.22,1.02 -0.66,1.36 -0.44,0.33 -0.99,0.5 -1.66,0.5 -0.49,0 -0.91,-0.07 -1.28,-0.21 -0.37,-0.15 -0.71,-0.35 -1.01,-0.61l0.39 -0.45c0.29,0.23 0.58,0.4 0.88,0.51 0.3,0.11 0.64,0.16 1.01,0.16 0.48,0 0.86,-0.11 1.15,-0.32 0.29,-0.22 0.43,-0.52 0.43,-0.91 0,-0.26 -0.04,-0.47 -0.14,-0.63 -0.1,-0.17 -0.27,-0.31 -0.51,-0.43 -0.23,-0.11 -0.58,-0.24 -1.04,-0.36 -0.68,-0.18 -1.16,-0.4 -1.46,-0.67 -0.3,-0.27 -0.45,-0.63 -0.45,-1.08 0,-0.32 0.09,-0.61 0.28,-0.87 0.19,-0.25 0.44,-0.45 0.77,-0.6 0.32,-0.14 0.68,-0.21 1.08,-0.21zm4.83 0.13l0 6.42 -0.71 0 0 -6.42 0.71 0zm-0.36 -2.82c0.16,0 0.29,0.05 0.39,0.15 0.1,0.1 0.15,0.22 0.15,0.37 0,0.15 -0.05,0.27 -0.15,0.37 -0.1,0.09 -0.23,0.14 -0.39,0.14 -0.16,0 -0.29,-0.05 -0.38,-0.14 -0.1,-0.1 -0.15,-0.22 -0.15,-0.37 0,-0.15 0.05,-0.27 0.15,-0.37 0.09,-0.1 0.22,-0.15 0.38,-0.15zm3.68 9c0,0.56 -0.07,1 -0.19,1.33 -0.12,0.34 -0.3,0.6 -0.54,0.8 -0.24,0.2 -0.57,0.4 -1,0.6l-0.21 -0.52c0.31,-0.15 0.55,-0.31 0.72,-0.46 0.16,-0.15 0.29,-0.36 0.38,-0.62 0.08,-0.27 0.12,-0.64 0.12,-1.1l0 -6.21 0.72 0 0 6.18zm-0.37 -9c0.16,0 0.29,0.05 0.39,0.15 0.1,0.1 0.15,0.22 0.15,0.37 0,0.15 -0.05,0.27 -0.15,0.37 -0.1,0.09 -0.23,0.14 -0.39,0.14 -0.16,0 -0.28,-0.05 -0.38,-0.14 -0.1,-0.1 -0.15,-0.22 -0.15,-0.37 0,-0.15 0.05,-0.27 0.15,-0.37 0.1,-0.1 0.22,-0.15 0.38,-0.15zm7.51 5.79c0,0.18 0,0.35 -0.02,0.52l-4.28 0c0.04,0.83 0.24,1.45 0.6,1.85 0.35,0.41 0.82,0.61 1.4,0.61 0.33,0 0.63,-0.05 0.89,-0.15 0.26,-0.1 0.54,-0.27 0.84,-0.49l0.33 0.46c-0.32,0.26 -0.65,0.45 -0.98,0.59 -0.34,0.13 -0.71,0.19 -1.12,0.19 -0.85,0 -1.51,-0.29 -2,-0.87 -0.48,-0.58 -0.72,-1.38 -0.72,-2.41 0,-0.68 0.1,-1.28 0.31,-1.79 0.21,-0.51 0.51,-0.91 0.9,-1.19 0.39,-0.28 0.84,-0.42 1.35,-0.42 0.82,0 1.44,0.27 1.87,0.83 0.42,0.55 0.63,1.31 0.63,2.27zm-0.69 -0.22c0,-0.72 -0.15,-1.28 -0.45,-1.69 -0.3,-0.4 -0.74,-0.6 -1.33,-0.6 -0.53,0 -0.96,0.2 -1.29,0.61 -0.33,0.41 -0.51,1.03 -0.54,1.86l3.61 0 0 -0.18zm3.43 -5.44l0 9.11 -0.71 0 0 -9.03 0.71 -0.08zm3.59 2.69l-2.7 2.87 2.98 3.55 -0.85 0 -2.95 -3.51 2.7 -2.91 0.82 0zm6.18 6.42l-0.61 0 -0.04 -1.14c-0.5,0.85 -1.2,1.27 -2.09,1.27 -0.58,0 -1.03,-0.17 -1.35,-0.51 -0.31,-0.34 -0.47,-0.82 -0.47,-1.45l0 -4.59 0.71 0 0 4.52c0,0.5 0.11,0.86 0.32,1.09 0.2,0.24 0.52,0.35 0.95,0.35 0.74,0 1.36,-0.43 1.87,-1.31l0 -4.65 0.71 0 0 6.42z"/>
  </g>
  <path class="fil3" d="M0 72.87l1.48 -11.06c0.11,-0.89 0.39,-1.58 0.84,-2.07 0.44,-0.49 1.01,-0.74 1.71,-0.74 0.65,0 1.2,0.22 1.65,0.65 0.44,0.43 0.77,1.06 0.96,1.89l0.9 3.79c0.09,0.36 0.16,0.76 0.23,1.2 0.06,0.45 0.11,0.95 0.16,1.52 0.04,-0.57 0.1,-1.07 0.16,-1.52 0.06,-0.44 0.14,-0.84 0.23,-1.2l0.9 -3.79c0.2,-0.83 0.51,-1.46 0.96,-1.89 0.45,-0.43 1,-0.65 1.66,-0.65 0.69,0 1.26,0.25 1.7,0.74 0.44,0.49 0.72,1.18 0.84,2.07l1.49 11.06 -3.27 0 -0.76 -8.53c-0.04,-0.45 -0.07,-0.88 -0.11,-1.31 -0.03,-0.42 -0.05,-0.83 -0.07,-1.22 -0.11,0.58 -0.2,1.05 -0.27,1.43 -0.08,0.37 -0.15,0.71 -0.22,1l-1.42 6.64c-0.17,0.76 -0.39,1.3 -0.67,1.62 -0.28,0.33 -0.67,0.49 -1.15,0.49 -0.48,0 -0.86,-0.16 -1.14,-0.49 -0.28,-0.32 -0.51,-0.86 -0.67,-1.62l-1.43 -6.64c-0.09,-0.4 -0.24,-1.16 -0.46,-2.28 -0.02,-0.06 -0.03,-0.11 -0.03,-0.15 0,0.64 -0.05,1.41 -0.14,2.3 -0.01,0.11 -0.02,0.18 -0.02,0.23l-0.76 8.53 -3.28 0zm25.52 0l-0.36 0c-1.18,0 -2.23,-0.09 -3.12,-0.28 -0.88,-0.19 -1.64,-0.48 -2.25,-0.87 -1,-0.64 -1.77,-1.45 -2.31,-2.44 -0.55,-0.99 -0.82,-2.07 -0.82,-3.24 0,-1.18 0.27,-2.26 0.82,-3.24 0.54,-0.98 1.31,-1.79 2.31,-2.43 0.61,-0.39 1.37,-0.68 2.25,-0.87 0.89,-0.19 1.94,-0.28 3.12,-0.28l0.36 0 0 3.1c-0.09,0 -0.19,-0.01 -0.28,-0.01 -0.1,-0.01 -0.24,-0.01 -0.43,-0.01 -1.2,0 -2.14,0.18 -2.85,0.53 -0.71,0.35 -1.21,0.89 -1.51,1.62l5.07 0 0 3.05 -5.14 0c0.23,0.75 0.72,1.32 1.47,1.7 0.75,0.38 1.76,0.57 3.03,0.57 0.17,0 0.3,0 0.39,-0.01 0.1,0 0.18,0 0.25,0l0 3.11zm1.83 0l0 -13.65 2.51 0c1.33,0 2.37,0.08 3.13,0.24 0.77,0.16 1.45,0.43 2.04,0.79 1.06,0.67 1.88,1.5 2.46,2.51 0.57,1 0.86,2.09 0.86,3.28 0,1.13 -0.26,2.19 -0.79,3.18 -0.52,0.98 -1.26,1.81 -2.22,2.48 -0.51,0.35 -1.1,0.62 -1.77,0.82 -0.67,0.2 -1.44,0.32 -2.29,0.35l0 -3.28c1.06,-0.04 1.93,-0.39 2.59,-1.05 0.66,-0.67 0.99,-1.51 0.99,-2.52 0,-1.04 -0.36,-1.9 -1.06,-2.57 -0.7,-0.67 -1.61,-1.01 -2.71,-1.01 -0.04,0 -0.1,0 -0.17,0.01 -0.07,0.01 -0.13,0.01 -0.17,0.01l0 10.41 -3.4 0zm12.59 0l0 -13.65 3.4 0 0 13.65 -3.4 0zm13.86 -10.45c-0.09,-0.01 -0.19,-0.01 -0.29,-0.02 -0.11,0 -0.27,0 -0.47,0 -1.5,0 -2.64,0.31 -3.43,0.94 -0.79,0.63 -1.19,1.53 -1.19,2.7 0,1.18 0.4,2.08 1.19,2.71 0.79,0.63 1.93,0.94 3.43,0.94 0.2,0 0.36,0 0.47,0 0.11,-0.01 0.21,-0.01 0.29,-0.01l0 3.19 -0.35 0c-1.2,0 -2.23,-0.09 -3.12,-0.28 -0.9,-0.19 -1.65,-0.48 -2.25,-0.87 -1,-0.64 -1.78,-1.45 -2.32,-2.44 -0.54,-0.99 -0.81,-2.07 -0.81,-3.24 0,-1.18 0.27,-2.26 0.81,-3.24 0.54,-0.98 1.31,-1.79 2.32,-2.43 0.6,-0.39 1.35,-0.68 2.25,-0.87 0.89,-0.19 1.92,-0.28 3.12,-0.28l0.35 0 0 3.2zm1.58 10.45l0 -13.65 3.4 0 0 13.65 -3.4 0zm5.45 0l0 -11.56c0,-0.73 0.19,-1.31 0.57,-1.74 0.38,-0.43 0.88,-0.65 1.51,-0.65 0.52,0 0.97,0.15 1.34,0.45 0.38,0.3 0.79,0.86 1.25,1.71l1.8 3.24c0.37,0.68 0.67,1.25 0.88,1.72 0.21,0.46 0.38,0.89 0.51,1.28 -0.07,-0.84 -0.13,-1.6 -0.18,-2.28 -0.04,-0.68 -0.06,-1.2 -0.06,-1.56l0 -4.26 3.29 0 0 12.01c0,0.56 -0.16,1 -0.48,1.34 -0.31,0.35 -0.73,0.52 -1.24,0.52 -0.44,0 -0.81,-0.11 -1.12,-0.34 -0.31,-0.23 -0.65,-0.67 -1.01,-1.32l-2.67 -4.8c-0.05,-0.11 -0.14,-0.27 -0.26,-0.48 -0.58,-1.06 -1,-1.92 -1.22,-2.58 0.13,0.91 0.22,1.74 0.28,2.49 0.07,0.75 0.09,1.45 0.09,2.1l0 4.71 -3.28 0zm12.53 0l0 -3.26 4.71 0c0.27,0 0.49,-0.06 0.63,-0.17 0.15,-0.12 0.23,-0.28 0.23,-0.5 0,-0.19 -0.08,-0.38 -0.23,-0.56 -0.15,-0.19 -0.39,-0.38 -0.7,-0.58l-2.63 -1.59c-0.6,-0.36 -1.08,-0.84 -1.44,-1.42 -0.35,-0.58 -0.53,-1.18 -0.53,-1.8 0,-0.6 0.1,-1.14 0.31,-1.62 0.2,-0.49 0.5,-0.9 0.9,-1.25 0.38,-0.33 0.84,-0.56 1.39,-0.7 0.55,-0.14 1.43,-0.2 2.66,-0.2l3.12 0 0 3.12 -3.58 0c-0.49,0 -0.83,0.04 -1.02,0.12 -0.19,0.08 -0.28,0.21 -0.28,0.41 0,0.18 0.07,0.36 0.22,0.54 0.14,0.19 0.37,0.37 0.67,0.55l2.57 1.53c0.73,0.44 1.29,0.97 1.67,1.58 0.38,0.61 0.57,1.28 0.57,2 0,0.62 -0.13,1.19 -0.39,1.71 -0.26,0.53 -0.62,0.96 -1.09,1.29 -0.4,0.29 -0.86,0.49 -1.37,0.62 -0.51,0.12 -1.32,0.18 -2.42,0.18l-0.21 0 -3.76 0zm10.89 0l0 -13.65 3.4 0 0 4.72 0.48 0c0.67,0 1.3,-0.66 1.88,-2 0.07,-0.14 0.11,-0.24 0.14,-0.29l1.07 -2.43 3.79 0 -1.9 3.94 0 0.04c-0.42,0.88 -0.92,1.46 -1.48,1.75 0.94,0.16 1.59,0.51 1.96,1.05 0.38,0.55 0.56,1.48 0.56,2.81l0 4.06 -3.36 0 0 -3.57c0,-0.8 -0.13,-1.33 -0.38,-1.61 -0.26,-0.28 -0.72,-0.42 -1.38,-0.42l-1.38 0 0 5.6 -3.4 0zm11.84 0l0 -13.65 3.4 0 0 13.65 -3.4 0zm10.89 0l0 -9.08c0,-1.55 0.39,-2.7 1.17,-3.45 0.78,-0.75 1.98,-1.12 3.59,-1.12l2.43 0 0 3.18 -2.37 0c-0.47,0 -0.82,0.12 -1.06,0.36 -0.24,0.24 -0.36,0.59 -0.36,1.05l0 0.9 3.79 0 0 3.18 -3.79 0 0 4.98 -3.4 0zm8.23 0l0 -8.07c0,-1.77 0.47,-3.19 1.42,-4.24 0.95,-1.05 2.21,-1.58 3.78,-1.58 1.57,0 2.83,0.53 3.79,1.58 0.95,1.06 1.43,2.47 1.43,4.24l0 8.07 -3.38 0 0 -5.06 -3.05 0 0 -3.2 3.05 0 0 -0.16c0,-0.66 -0.17,-1.18 -0.5,-1.57 -0.33,-0.39 -0.78,-0.58 -1.34,-0.58 -0.59,0 -1.05,0.2 -1.35,0.6 -0.31,0.4 -0.47,0.97 -0.47,1.73l0 8.24 -3.38 0zm12.33 0l0 -13.65 3.4 0 0 4.72 0.49 0c0.67,0 1.29,-0.66 1.88,-2 0.06,-0.14 0.1,-0.24 0.13,-0.29l1.08 -2.43 3.79 0 -1.9 3.94 -0.01 0.04c-0.42,0.88 -0.91,1.46 -1.47,1.75 0.93,0.16 1.59,0.51 1.96,1.05 0.37,0.55 0.56,1.48 0.56,2.81l0 4.06 -3.36 0 0 -3.57c0,-0.8 -0.13,-1.33 -0.39,-1.61 -0.26,-0.28 -0.72,-0.42 -1.37,-0.42l-1.39 0 0 5.6 -3.4 0zm21.74 -13.65l0 8.07c0,1.77 -0.47,3.18 -1.42,4.24 -0.95,1.05 -2.21,1.58 -3.78,1.58 -1.57,0 -2.83,-0.53 -3.77,-1.58 -0.95,-1.06 -1.42,-2.47 -1.42,-4.24l0 -8.07 3.38 0 0 8.27c0,0.73 0.15,1.3 0.47,1.69 0.31,0.39 0.76,0.59 1.34,0.59 0.6,0 1.06,-0.2 1.37,-0.59 0.31,-0.39 0.47,-0.96 0.47,-1.69l0 -8.27 3.36 0zm1.84 0l3.4 0 0 9.07c0,0.46 0.12,0.81 0.36,1.05 0.23,0.23 0.59,0.35 1.06,0.35l2.64 0 0 3.18 -2.7 0c-1.61,0 -2.81,-0.37 -3.59,-1.12 -0.78,-0.74 -1.17,-1.89 -1.17,-3.44l0 -9.09zm13.04 3.18l0 10.47 -3.4 0 0 -10.47 -2.93 0 0 -3.18 9.26 0 0 3.18 -2.93 0zm12.57 10.47l-0.36 0c-1.18,0 -2.23,-0.09 -3.12,-0.28 -0.88,-0.19 -1.64,-0.48 -2.25,-0.87 -1,-0.64 -1.77,-1.45 -2.31,-2.44 -0.55,-0.99 -0.82,-2.07 -0.82,-3.24 0,-1.18 0.27,-2.26 0.82,-3.24 0.54,-0.98 1.31,-1.79 2.31,-2.43 0.61,-0.39 1.37,-0.68 2.25,-0.87 0.89,-0.19 1.94,-0.28 3.12,-0.28l0.36 0 0 3.1c-0.09,0 -0.19,-0.01 -0.28,-0.01 -0.11,-0.01 -0.25,-0.01 -0.43,-0.01 -1.2,0 -2.14,0.18 -2.85,0.53 -0.71,0.35 -1.21,0.89 -1.51,1.62l5.07 0 0 3.05 -5.14 0c0.22,0.75 0.72,1.32 1.47,1.7 0.74,0.38 1.76,0.57 3.03,0.57 0.17,0 0.3,0 0.39,-0.01 0.1,0 0.18,0 0.25,0l0 3.11zm7.38 -10.47l0 10.47 -3.4 0 0 -10.47 -2.93 0 0 -3.18 9.26 0 0 3.18 -2.93 0zm12.71 3.62c0,1.02 0.34,1.89 1.04,2.61 0.69,0.72 1.52,1.08 2.5,1.08 0.97,0 1.8,-0.36 2.48,-1.08 0.69,-0.71 1.03,-1.58 1.03,-2.61 0,-1.03 -0.34,-1.9 -1.02,-2.61 -0.68,-0.71 -1.51,-1.07 -2.49,-1.07 -0.99,0 -1.82,0.36 -2.51,1.07 -0.69,0.71 -1.03,1.58 -1.03,2.61zm-3.48 0.01c0,-0.95 0.17,-1.84 0.53,-2.69 0.35,-0.85 0.87,-1.62 1.54,-2.31 0.67,-0.66 1.42,-1.17 2.27,-1.52 0.84,-0.35 1.74,-0.53 2.68,-0.53 0.94,0 1.84,0.18 2.69,0.54 0.85,0.35 1.61,0.86 2.27,1.53 0.65,0.66 1.16,1.42 1.5,2.27 0.35,0.85 0.53,1.76 0.53,2.71 0,0.96 -0.18,1.87 -0.53,2.73 -0.34,0.86 -0.85,1.61 -1.5,2.27 -0.66,0.67 -1.42,1.19 -2.27,1.54 -0.85,0.36 -1.75,0.54 -2.69,0.54 -0.94,0 -1.83,-0.18 -2.67,-0.54 -0.85,-0.35 -1.61,-0.87 -2.28,-1.54 -0.67,-0.69 -1.19,-1.45 -1.54,-2.3 -0.36,-0.84 -0.53,-1.74 -0.53,-2.7zm15.18 6.84l0 -3.26 4.71 0c0.27,0 0.49,-0.06 0.64,-0.17 0.15,-0.12 0.22,-0.28 0.22,-0.5 0,-0.19 -0.07,-0.38 -0.23,-0.56 -0.15,-0.19 -0.39,-0.38 -0.7,-0.58l-2.63 -1.59c-0.6,-0.36 -1.08,-0.84 -1.44,-1.42 -0.35,-0.58 -0.53,-1.18 -0.53,-1.8 0,-0.6 0.1,-1.14 0.31,-1.62 0.2,-0.49 0.5,-0.9 0.9,-1.25 0.38,-0.33 0.84,-0.56 1.39,-0.7 0.55,-0.14 1.44,-0.2 2.66,-0.2l3.12 0 0 3.12 -3.58 0c-0.49,0 -0.83,0.04 -1.02,0.12 -0.19,0.08 -0.28,0.21 -0.28,0.41 0,0.18 0.07,0.36 0.22,0.54 0.14,0.19 0.37,0.37 0.67,0.55l2.57 1.53c0.73,0.44 1.29,0.97 1.67,1.58 0.38,0.61 0.57,1.28 0.57,2 0,0.62 -0.13,1.19 -0.39,1.71 -0.26,0.53 -0.62,0.96 -1.08,1.29 -0.41,0.29 -0.87,0.49 -1.38,0.62 -0.51,0.12 -1.31,0.18 -2.42,0.18l-0.21 0 -3.76 0zm10.93 0l0 -13.65 3.4 0 0 13.65 -3.4 0zm11.76 -13.65l0 9.09c0,1.55 -0.39,2.7 -1.17,3.44 -0.78,0.75 -1.98,1.12 -3.6,1.12l-2.42 0 0 -3.18 2.36 0c0.48,0 0.83,-0.12 1.07,-0.35 0.24,-0.24 0.36,-0.59 0.36,-1.05l0 -9.07 3.4 0zm10.32 13.65l-0.35 0c-1.19,0 -2.23,-0.09 -3.12,-0.28 -0.89,-0.19 -1.65,-0.48 -2.25,-0.87 -1,-0.64 -1.78,-1.45 -2.32,-2.44 -0.54,-0.99 -0.81,-2.07 -0.81,-3.24 0,-1.18 0.27,-2.26 0.81,-3.24 0.54,-0.98 1.31,-1.79 2.32,-2.43 0.6,-0.39 1.36,-0.68 2.25,-0.87 0.89,-0.19 1.93,-0.28 3.12,-0.28l0.35 0 0 3.1c-0.09,0 -0.18,-0.01 -0.28,-0.01 -0.1,-0.01 -0.24,-0.01 -0.43,-0.01 -1.19,0 -2.14,0.18 -2.85,0.53 -0.71,0.35 -1.21,0.89 -1.51,1.62l5.07 0 0 3.05 -5.14 0c0.23,0.75 0.72,1.32 1.47,1.7 0.75,0.38 1.76,0.57 3.03,0.57 0.17,0 0.3,0 0.39,-0.01 0.1,0 0.18,0 0.25,0l0 3.11zm1.83 0l0 -13.65 3.4 0 0 4.72 0.49 0c0.67,0 1.29,-0.66 1.88,-2 0.06,-0.14 0.11,-0.24 0.13,-0.29l1.08 -2.43 3.79 0 -1.9 3.94 -0.01 0.04c-0.42,0.88 -0.91,1.46 -1.47,1.75 0.94,0.16 1.59,0.51 1.96,1.05 0.38,0.55 0.56,1.48 0.56,2.81l0 4.06 -3.36 0 0 -3.57c0,-0.8 -0.13,-1.33 -0.39,-1.61 -0.25,-0.28 -0.71,-0.42 -1.37,-0.42l-1.39 0 0 5.6 -3.4 0z"/>
 </g>
</svg>
